<svg width="24" height="24" viewBox="0 0 24 24" fill="none" xmlns="http://www.w3.org/2000/svg">
<path d="M11.967 3.00115C11.9955 2.99973 12.024 2.99963 12.0525 3.00083C13.35 3.05557 14.3654 3.46606 15.0846 4.14845C15.8004 4.82768 16.1423 5.70061 16.2255 6.52782C16.3064 7.31956 16.2886 8.66384 16.0878 9.93993C15.9869 10.5817 15.8339 11.2445 15.6044 11.8294C15.446 12.2332 15.2293 12.6568 14.9245 13.0085L14.9294 13.5242C15.2475 13.6641 15.7377 13.8716 16.4716 14.1656C16.5863 14.2115 16.6996 14.2566 16.8116 14.3013C17.4767 14.5663 18.0979 14.8138 18.6778 15.0929C20.1833 15.8173 20.7366 17.174 20.9162 18.2307C21.0058 18.7577 21.0092 19.2359 20.9916 19.5795C20.9827 19.7529 20.9682 19.8963 20.9554 19.9998L20.928 20.1854C20.8292 20.7281 20.3245 21.0849 19.8009 20.9825C19.2788 20.8803 18.9349 20.3599 19.031 19.8189L19.0646 19.4735C19.0768 19.2355 19.0732 18.9159 19.0158 18.5776C18.9013 17.904 18.6004 17.2607 17.8652 16.9069C17.3493 16.6586 16.7985 16.439 16.1295 16.1722C16.0153 16.1267 15.8976 16.0798 15.7761 16.0311C14.8974 15.6792 14.3466 15.4429 14.0108 15.2921C13.8428 15.2166 13.7272 15.1619 13.6504 15.1243C13.6119 15.1055 13.5827 15.0907 13.5613 15.0796L13.5344 15.0655L13.5247 15.0603L13.5207 15.0581L13.5189 15.0571L13.5176 15.0564C13.2059 14.8844 13.0094 14.5494 13.0059 14.1835L12.9907 12.5849C12.9875 12.257 13.1397 11.9483 13.398 11.7588C13.4937 11.6886 13.653 11.4938 13.8169 11.0761C13.9732 10.6775 14.096 10.1729 14.1833 9.61807C14.3589 8.50158 14.3678 7.33641 14.3064 6.73778L14.3062 6.73562C14.2647 6.32171 14.1005 5.92621 13.7815 5.62358C13.4705 5.32848 12.934 5.04774 12.0174 5.00117C10.5161 5.09345 9.77178 6.08977 9.70677 6.73669C9.64545 7.34154 9.65122 8.50839 9.82357 9.62377C9.90927 10.1784 10.0306 10.6827 10.186 11.0817C10.3487 11.4991 10.5082 11.6961 10.6064 11.7687C10.8631 11.9586 11.014 12.2665 11.0107 12.5933L10.9943 14.1999C10.9907 14.5555 10.8051 14.8824 10.507 15.0583L10.505 15.0595C10.3385 15.1492 10.1696 15.2326 9.99812 15.3117C9.65881 15.4683 9.10492 15.7098 8.22404 16.0625C7.95356 16.1708 7.74232 16.247 7.54207 16.3191C7.15095 16.4601 6.80171 16.5859 6.13486 16.9069C5.3995 17.2607 5.09865 17.9041 4.98421 18.5777C4.92674 18.9159 4.92321 19.2355 4.93541 19.4734L4.96897 19.8186C5.06507 20.3596 4.7213 20.8802 4.19919 20.9824C3.67558 21.0849 3.17093 20.7281 3.07202 20.1854L3.04465 19.9998C3.03179 19.8963 3.01732 19.7529 3.00843 19.5795C2.99082 19.236 2.99422 18.7578 3.08376 18.2308C3.26331 17.174 3.81667 15.8174 5.3222 15.0929C6.07365 14.7313 6.56096 14.5546 6.99321 14.3978C7.17624 14.3315 7.3495 14.2687 7.52867 14.1969C8.2666 13.9015 8.7562 13.6912 9.07114 13.5494L9.0766 13.0145C8.77152 12.6614 8.5549 12.2364 8.3968 11.8307C8.16848 11.2448 8.01732 10.5818 7.91816 9.94003C7.72077 8.66265 7.70734 7.31981 7.78755 6.5286C7.97144 4.69876 9.68694 3.11453 11.967 3.00115Z" fill="#303438"/>
</svg>
